<svg  style="position: absolute; width: 0; height: 0; overflow: hidden;" version="1.1" xmlns="http://www.w3.org/2000/svg" xmlns:xlink="http://www.w3.org/1999/xlink">
<defs>
<symbol id="icon-checkbox-check" viewBox="0 0 32 32">
<path fill="#6764f1" style="fill: var(--color1, #6764f1)" d="M13.333 20.781l-4.391-4.391-1.885 1.885 6.276 6.276 12.943-12.943-1.885-1.885-11.057 11.057z"></path>
</symbol>
<symbol id="icon-checkbox-checked-wrapper" viewBox="0 0 32 32">
<path fill="none" stroke="#6764f1" style="stroke: var(--color1, #6764f1)" stroke-linejoin="miter" stroke-linecap="butt" stroke-miterlimit="4" stroke-width="2.6667" d="M5.333 1.333h21.333c2.209 0 4 1.791 4 4v21.333c0 2.209-1.791 4-4 4h-21.333c-2.209 0-4-1.791-4-4v-21.333c0-2.209 1.791-4 4-4z"></path>
</symbol>
<symbol id="icon-checkbox-uncecked" viewBox="0 0 32 32">
<path fill="none" stroke="#f5f5f5" style="stroke: var(--color2, #f5f5f5)" stroke-linejoin="miter" stroke-linecap="butt" stroke-miterlimit="4" stroke-width="2.6667" d="M5.333 1.333h21.333c2.209 0 4 1.791 4 4v21.333c0 2.209-1.791 4-4 4h-21.333c-2.209 0-4-1.791-4-4v-21.333c0-2.209 1.791-4 4-4z"></path>
</symbol>
</defs>
</svg>
